HIERARCHY
ROOT hip
{
	OFFSET 0.000000 0.000000 0.000000
	CHANNELS 6 Xposition Yposition Zposition Xrotation Zrotation Yrotation 
	JOINT abdomen
	{
		OFFSET 0.000000 3.422050 0.000000
		CHANNELS 3 Xrotation Zrotation Yrotation 
		JOINT chest
		{
			OFFSET 0.000000 8.486693 -0.684411
			CHANNELS 3 Xrotation Zrotation Yrotation 
			JOINT neck
			{
				OFFSET 0.000000 10.266162 -0.273764
				CHANNELS 3 Xrotation Zrotation Yrotation 
				JOINT head
				{
					OFFSET 0.000000 3.148285 0.000000
					CHANNELS 3 Xrotation Zrotation Yrotation 
					End Site
					{
						OFFSET 0.000000 3.148289 0.000000
					}
				}
			}
			JOINT lCollar
			{
				OFFSET 3.422053 6.707223 -0.821293
				CHANNELS 3 Yrotation Zrotation Xrotation 
				JOINT lShldr
				{
					OFFSET 3.285171 0.000000 0.000000
					CHANNELS 3 Zrotation Yrotation Xrotation 
					JOINT lForeArm
					{
						OFFSET 10.129278 0.000000 0.000000
						CHANNELS 3 Yrotation Zrotation Xrotation 
						JOINT lHand
						{
							OFFSET 8.486692 0.000000 0.000000
							CHANNELS 3 Zrotation Yrotation Xrotation 
							End Site
							{
								OFFSET 4.106464 0.000000 0.000000
							}
						}
					}
				}
			}
			JOINT rCollar
			{
				OFFSET -3.558935 6.707223 -0.821293
				CHANNELS 3 Yrotation Zrotation Xrotation 
				JOINT rShldr
				{
					OFFSET -3.148289 0.000000 0.000000
					CHANNELS 3 Zrotation Yrotation Xrotation 
					JOINT rForeArm
					{
						OFFSET -10.266159 0.000000 0.000000
						CHANNELS 3 Yrotation Zrotation Xrotation 
						JOINT rHand
						{
							OFFSET -8.349810 0.000000 0.000000
							CHANNELS 3 Zrotation Yrotation Xrotation 
							End Site
							{
								OFFSET -4.106464 0.000000 0.000000
							}
						}
					}
				}
			}
		}
	}
	JOINT lThigh
	{
		OFFSET 5.338403 -1.642589 1.368821
		CHANNELS 3 Xrotation Zrotation Yrotation 
		JOINT lShin
		{
			OFFSET -2.053232 -20.121670 0.000000
			CHANNELS 3 Xrotation Zrotation Yrotation 
			JOINT lFoot
			{
				OFFSET 0.000000 -19.300380 -1.231939
				CHANNELS 3 Xrotation Yrotation Zrotation 
				End Site
				{
					OFFSET 0.000000 -2.463878 4.653993
				}
			}
		}
	}
	JOINT rThigh
	{
		OFFSET -5.338403 -1.642589 1.368821
		CHANNELS 3 Xrotation Zrotation Yrotation 
		JOINT rShin
		{
			OFFSET 2.053232 -20.121670 0.000000
			CHANNELS 3 Xrotation Zrotation Yrotation 
			JOINT rFoot
			{
				OFFSET 0.000000 -19.300380 -1.231939
				CHANNELS 3 Xrotation Yrotation Zrotation 
				End Site
				{
					OFFSET 0.000000 -2.463878 4.653993
				}
			}
		}
	}
}
MOTION
Frames: 6
Frame Time: 0.049897
0.501617 15.906570 0.185327 15.227316 0.000000 0.000000 25.030499 -1.266485 -0.936416 37.076458 -0.373010 -0.433079 0.000000 0.000000 0.000000 0.000000 0.000000 0.000000 -16.553513 -10.123202 -2.296641 -37.271297 -71.973061 -1.192475 -8.801670 4.119708 -16.676781 23.036089 8.885044 6.805871 16.741159 10.107085 -2.437150 37.450211 74.817429 8.924904 4.847716 -5.092080 -16.676615 -23.638590 -8.606396 6.922616 -62.243233 32.321396 -5.825830 127.661575 24.411966 -1.764237 47.710922 -0.488824 -10.320970 -62.201809 -32.372372 5.912623 127.576050 -24.521469 1.817639 47.973461 0.683754 10.336309 
0.501617 15.967096 0.151384 15.956061 0.000000 0.000000 24.199825 -1.266752 -0.936700 37.076458 -0.373010 -0.433079 0.000000 0.000000 0.000000 0.000000 0.000000 0.000000 -17.183836 -9.983490 -2.344745 -36.022060 -71.220512 -3.094420 -8.601392 4.118802 -16.852011 23.140522 8.519346 6.604498 17.380444 9.965857 -2.491614 37.369354 74.189171 8.660186 4.697586 -5.091391 -16.851746 -23.771307 -8.228155 6.724343 -62.907356 31.800846 -5.951639 127.661575 24.411966 -1.764237 47.840118 -0.639655 -10.824147 -62.863750 -31.853653 6.042959 127.576050 -24.521469 1.817639 48.114220 0.845322 10.839752 
0.501617 16.027622 0.117442 16.684698 0.000000 0.000000 23.369329 -1.267024 -0.936981 37.076458 -0.373010 -0.433079 0.000000 0.000000 0.000000 0.000000 0.000000 0.000000 -17.813694 -9.843282 -2.391261 -34.894321 -70.455315 -4.876597 -8.401122 4.117285 -17.027231 23.246151 8.154037 6.402655 18.019238 9.824059 -2.544444 37.301830 73.561211 8.408605 4.547464 -5.090246 -17.026878 -23.905214 -7.850396 6.525386 -63.566330 31.279207 -6.069656 127.661575 24.411966 -1.764237 47.967964 -0.791600 -11.326952 -63.520508 -31.333807 6.165522 127.576050 -24.521469 1.817639 48.253540 1.008105 11.342770 
0.501617 16.088148 0.083499 17.413151 0.000000 0.000000 22.539091 -1.267300 -0.937257 37.076458 -0.373010 -0.433079 0.000000 0.000000 0.000000 0.000000 0.000000 0.000000 -18.443052 -9.702605 -2.436182 -33.876400 -69.679062 -6.550642 -8.200863 4.115158 -17.202442 23.352978 7.789130 6.200331 18.657495 9.681709 -2.595634 37.246124 72.933563 8.168666 4.397350 -5.088646 -17.202002 -24.040312 -7.473133 6.325733 -64.220253 30.756598 -6.180004 127.661575 24.411966 -1.764237 48.094475 -0.944640 -11.829372 -64.172188 -30.812944 6.280433 127.576050 -24.521469 1.817639 48.391434 1.172082 11.845352 
0.501617 16.148674 0.049556 18.141371 0.000000 0.000000 21.709202 -1.267579 -0.937530 37.076458 -0.373010 -0.433079 0.000000 0.000000 0.000000 0.000000 0.000000 0.000000 -19.071880 -9.561486 -2.479505 -32.957817 -68.893234 -8.127028 -8.000620 4.112419 -17.377632 23.460997 7.424642 5.997515 19.295198 9.538850 -2.645180 37.201008 72.306259 7.939157 4.247245 -5.086587 -17.377115 -24.176598 -7.096390 6.125378 -64.869263 30.233164 -6.282816 127.661575 24.411966 -1.764237 48.219608 -1.098754 -12.331383 -64.818916 -30.291197 6.387820 127.576050 -24.521469 1.817639 48.527847 1.337229 12.347475 
0.501617 16.209200 0.015614 18.869293 0.000000 0.000000 20.879749 -1.267862 -0.937798 37.076458 -0.373010 -0.433079 0.000000 0.000000 0.000000 0.000000 0.000000 0.000000 -19.700140 -9.419949 -2.521223 -32.129208 -68.099106 -9.615087 -7.800398 4.109070 -17.552805 23.570213 7.060590 5.794202 19.932306 9.395500 -2.693076 37.165405 71.679390 7.718979 4.097154 -5.084072 -17.552210 -24.314081 -6.720182 5.924312 -65.513443 29.709002 -6.378204 127.661575 24.411966 -1.764237 48.343380 -1.253925 -12.832973 -65.460831 -29.768711 6.487814 127.576050 -24.521469 1.817639 48.662800 1.503528 12.849125 
